# AST/ASF file generated using VICON BodyLanguage
# -----------------------------------------------
:version 1.10
:name VICON
:units
  mass 1.0
  length 0.45
  angle deg
:documentation
   .ast/.asf automatically generated from VICON data using
   VICON BodyBuilder and BodyLanguage model FoxedUp or BRILLIANT.MOD
:root
   order TX TY TZ RX RY RZ
   axis XYZ
   position 0 0 0  
   orientation 0 0 0 
:bonedata
  begin
     id 1 
     name lhipjoint
     direction 0.54267 -0.795011 0.271047 
     length 2.39899 
     axis 0 0 0  XYZ
  end
  begin
     id 2 
     name lfemur
     direction 0.34202 -0.939693 0  
     length 7.49701  
     axis 0 0 20  XYZ
    dof rx ry rz
    limits (-160.0 20.0)
           (-70.0 70.0)
           (-60.0 70.0)
  end
  begin
     id 3 
     name ltibia
     direction 0.34202 -0.939693 0   
     length 8.1668   
     axis 0 0 20   XYZ
    dof rx
    limits (-10.0 170.0)
  end
  begin
     id 4 
     name lfoot
     direction 0.0736283 -0.202292 0.976554   
     length 2.13544   
     axis -90 7.62852e-016 20   XYZ
    dof rx rz
    limits (-45.0 90.0)
           (-70.0 20.0)
  end
  begin
     id 5 
     name ltoes
     direction 1.53557e-011 -4.22024e-011 1   
     length 1.07411   
     axis -90 7.62852e-016 20   XYZ
    dof rx
    limits (-90.0 20.0)
  end
  begin
     id 6 
     name rhipjoint
     direction -0.538061 -0.797813 0.272002   
     length 2.39057  
     axis 0 0 0  XYZ 
  end
  begin
     id 7 
     name rfemur
     direction -0.34202 -0.939693 0   
     length 7.50152   
     axis 0 0 -20   XYZ
    dof rx ry rz
    limits (-160.0 20.0)
           (-70.0 70.0)
           (-70.0 60.0)
  end
  begin
     id 8 
     name rtibia
     direction -0.34202 -0.939693 0   
     length 8.05793   
     axis 0 0 -20   XYZ
    dof rx
    limits (-10.0 170.0)
 end
 begin
     id 9 
     name rfoot
     direction -0.0765195 -0.210236 0.974652   
     length 2.28698  
     axis -90 -7.62852e-016 -20   XYZ
    dof rx rz
    limits (-45.0 90.0)
           (-20.0 70.0)
  end
  begin
     id 10 
     name rtoes
     direction -1.53542e-011 -4.21847e-011 1   
     length 1.14762   
     axis -90 -7.62852e-016 -20   XYZ
    dof rx
    limits (-90.0 20.0)
  end
  begin
     id 11 
     name lowerback
     direction -0.0217239 0.996592 -0.0795765   
     length 2.08176   
     axis 0 0 0   XYZ
    dof rx ry rz
    limits (-20.0 45.0)
           (-30.0 30.0)
           (-30.0 30.0)
  end
  begin
     id 12 
     name upperback
     direction -0.00563773 0.999651 -0.0258155   
     length 2.08898   
     axis 0 0 0   XYZ
    dof rx ry rz
    limits (-20.0 45.0)
           (-30.0 30.0)
           (-30.0 30.0)
  end
  begin
     id 13 
     name thorax
     direction 0.0032706 0.999923 0.0119599   
     length 2.0968   
     axis 0 0 0   XYZ
    dof rx ry rz
    limits (-20.0 45.0)
           (-30.0 30.0)
           (-30.0 30.0)
  end
  begin
     id 14 
     name lowerneck
     direction -0.0285886 0.99568 0.0883427   
     length 1.81272   
     axis 0 0 0   XYZ
    dof rx ry rz
    limits (-20.0 45.0)
           (-30.0 30.0)
           (-30.0 30.0)
  end
  begin
     id 15 
     name upperneck
     direction 0.0807535 0.97985 -0.18268   
     length 1.82518   
     axis 0 0 0   XYZ
    dof rx ry rz
    limits (-20.0 45.0)
           (-30.0 30.0)
           (-30.0 30.0)
  end
  begin
     id 16
     name head
     direction 0.0236605 0.997053 -0.0729767  
     length 1.84443  
     axis 0 0 0   XYZ
    dof rx ry rz
    limits (-20.0 45.0)
           (-30.0 30.0)
           (-30.0 30.0)
  end
  begin
     id 17 
     name lclavicle
     direction 0.918986 0.39378 -0.0200683  
     length 3.27822  
     axis 0 0 0   XYZ
    dof ry rz
    limits (-20.0 10.0)
           (0.0 20.0)
  end
  begin
     id 18 
     name lhumerus
     direction 1 -4.4897e-011 2.09544e-027   
     length 5.5568   
     axis 180 -30 -90   XYZ
    dof rx ry rz
    limits (-60.0 90.0)
           (-90.0 90.0)
           (-90.0 90.0)
  end
  begin
     id 19
     name lradius
     direction 1 -4.48957e-011 -1.27696e-026   
     length 3.63979   
     axis 180 -30 -90   XYZ
    dof rx
    limits (-10.0 170.0)
  end
  begin
     id 20
     name lwrist
     direction 1 -4.49001e-011 -1.49001e-026   
     length 1.8199   
     axis 9.0955e-015 90 90   XYZ
    dof ry
    limits (-180.0 0.0)
 end
  begin
     id 21 
     name lhand
     direction 1 -4.48709e-011 -2.9758e-026   
     length 0.569419   
     axis 1.90115e-014 90 90   XYZ
    dof rx rz
    limits (-90.0 90.0)
           (-45.0 45.0)
  end
  begin
     id 22 
     name lfingers
     direction 1 -4.49175e-011 -5.96505e-026   
     length 0.45908   
     axis 3.80223e-014 90 90   XYZ
    dof rx
    limits (0.0 90.0)
  end
  begin
     id 23
     name lthumb
     direction 0.707107 -6.34864e-011 0.707107   
     length 0.65915   
     axis -90 45 -3.84942e-014   XYZ
    dof rx rz
    limits (-45.0 45.0)
           (-45.0 45.0)
  end
  begin
     id 24 
     name rclavicle
     direction -0.911913 0.396426 -0.106115   
     length 3.46301  
     axis 0 0 0   XYZ 
    dof ry rz
    limits (-10.0 20.0)
           (-20.0 0.0)
  end
  begin
     id 25 
     name rhumerus
     direction -1 -4.48965e-011 7.78516e-028  
     length 5.34339   
     axis 180 30 90   XYZ
    dof rx ry rz
    limits (-90.0 60.0)
           (-90.0 90.0)
           (-90.0 90.0)
  end
  begin
     id 26 
     name rradius
     direction -1 -4.48948e-011 -5.79823e-027   
     length 3.65101   
     axis 180 30 90   XYZ
    dof rx
    limits (-10.0 170.0)
  end
  begin
     id 27 
     name rwrist
     direction -1 -4.48995e-011 -1.48996e-026   
     length 1.8255   
     axis 9.0955e-015 -90 -90   XYZ
    dof ry
    limits (-180.0 0.0)
  end
  begin
     id 28
     name rhand
     direction -1 -4.48957e-011 -2.97937e-026   
     length 0.694249   
     axis 1.90115e-014 -90 -90   XYZ
    dof rx rz
    limits (-90.0 90.0)
           (-45.0 45.0)
  end
  begin
     id 29
     name rfingers
     direction -1 -4.4898e-011 -5.95943e-026   
     length 0.559721   
     axis 3.80223e-014 -90 -90   XYZ
    dof rx
    limits (0.0 90.0)
  end
  begin
     id 30
     name rthumb
     direction -0.707107 -6.34969e-011 0.707107   
     length 0.803651   
     axis -90 -45 3.84942e-014   XYZ
    dof rx rz
    limits (-45.0 45.0)
           (-45.0 45.0)
  end
:hierarchy
  begin
    root lhipjoint rhipjoint lowerback
    lhipjoint lfemur
    lfemur ltibia
    ltibia lfoot
    lfoot ltoes
    rhipjoint rfemur
    rfemur rtibia
    rtibia rfoot
    rfoot rtoes
    lowerback upperback
    upperback thorax
    thorax lowerneck lclavicle rclavicle
    lowerneck upperneck
    upperneck head
    lclavicle lhumerus
    lhumerus lradius
    lradius lwrist
    lwrist lhand lthumb
    lhand lfingers
    rclavicle rhumerus
    rhumerus rradius
    rradius rwrist
    rwrist rhand rthumb
    rhand rfingers
  end

#!OML:ASF H:\Terrain\Walking\May29\JustinRory\rory.ASF
:FULLY-SPECIFIED
:DEGREES
130
root -3.56024 17.4498 -5.00506 -7.64258 -15.749 4.95735
lowerback 8.98499 2.99916 -5.95988
upperback 3.51021 3.40969 -2.01932
thorax -1.6002 1.66739 0.894096
lowerneck -7.977 7.44208 4.72321
upperneck 18.9877 11.584 -10.2211
head 8.06207 4.96205 -3.01985
rclavicle 2.35063e-014 -1.03368e-014
rhumerus -36.2496 2.20121 -76.6441
rradius 56.2469
rwrist -3.83476
rhand -11.3539 36.5446
rfingers 7.12502
rthumb 14.6795 7.08424
lclavicle 2.35063e-014 -1.03368e-014
lhumerus -28.4786 -4.12072 83.4527
lradius 42.3909
lwrist 10.0892
lhand -29.4107 28.5145
lfingers 7.12502
lthumb -2.74831 58.4766
rfemur -17.6936 9.01514 0.187304
rtibia 40.6424
rfoot -5.98314 -15.6067
rtoes 1.54863
lfemur -13.9059 -13.1683 -6.76609
ltibia 32.4072
lfoot -7.65024 -9.82178
ltoes -25.2971
131
root -3.78296 17.4453 -5.00438 -7.46257 -15.0024 4.05147
lowerback 8.98938 3.00838 -5.22288
upperback 3.64902 3.50043 -1.66713
thorax -1.44556 1.7115 0.843737
lowerneck -8.40001 7.12927 4.24508
upperneck 19.2548 11.1756 -9.8819
head 8.14582 4.74287 -2.86148
rclavicle -7.02207e-014 2.8625e-014
rhumerus -36.3533 1.86899 -76.0176
rradius 55.9449
rwrist -4.2015
rhand -11.1638 36.2811
rfingers 7.12502
rthumb 14.8627 6.83422
lclavicle -7.02207e-014 2.8625e-014
lhumerus -27.1506 -6.19762 84.0945
lradius 40.5037
lwrist 12.006
lhand -30.0093 27.5996
lfingers 7.12502
lthumb -3.32648 57.5534
rfemur -16.5585 10.9726 0.622452
rtibia 38.9418
rfoot -5.86367 -14.3671
rtoes -6.65644
lfemur -13.7549 -13.7125 -5.20054
ltibia 32.0393
lfoot -7.28926 -9.76824
ltoes -25.6286
132
root -4.00648 17.4314 -5.01361 -7.25075 -14.2472 2.81073
lowerback 9.08557 2.99929 -4.0312
upperback 3.79313 3.59595 -1.39165
thorax -1.30402 1.76352 0.456179
lowerneck -8.75691 6.84485 4.21752
upperneck 19.4859 10.758 -9.66093
head 8.23983 4.54502 -2.81901
rclavicle 4.99446e-015 1.19271e-015
rhumerus -36.4521 1.2283 -75.5824
rradius 55.5853
rwrist -4.31076
rhand -11.3469 35.993
rfingers 7.12502
rthumb 14.6863 6.53313
lclavicle 4.99446e-015 1.19271e-015
lhumerus -27.3671 -6.64676 84.1616
lradius 42.1123
lwrist 12.0241
lhand -29.6376 28.8703
lfingers 7.12502
lthumb -2.96752 58.8294
rfemur -15.4681 12.8209 1.57942
rtibia 37.6961
rfoot -6.57169 -12.4496
rtoes -13.449
lfemur -13.6199 -14.1506 -3.25967
ltibia 31.719
lfoot -6.72879 -9.76777
ltoes -28.4379
133
root -4.2325 17.4254 -5.02719 -7.04513 -13.2637 2.84394
lowerback 8.93927 2.91909 -4.2849
upperback 3.8916 3.47937 -1.48518
thorax -1.12516 1.70041 0.523816
lowerneck -9.35839 6.68681 4.20801
upperneck 19.7606 10.5012 -9.389
head 8.40572 4.41982 -2.7368
rclavicle -3.12092e-014 2.82274e-014
rhumerus -36.3632 0.837688 -75.47
rradius 55.1373
rwrist -4.43927
rhand -11.6899 35.6658
rfingers 7.12502
rthumb 14.3558 6.18218
lclavicle -3.12092e-014 2.82274e-014
lhumerus -27.2114 -7.28781 84.1243
lradius 43.2019
lwrist 12.7708
lhand -30.1477 30.3962
lfingers 7.12502
lthumb -3.4601 60.3479
rfemur -14.7664 14.0233 1.19064
rtibia 36.9371
rfoot -7.90713 -9.94019
rtoes -17.522
lfemur -13.9649 -14.7937 -2.65261
ltibia 31.5072
lfoot -5.98323 -9.54928
ltoes -28.9829
134
root -4.46226 17.4222 -5.03679 -6.90885 -12.4371 3.11096
lowerback 8.81191 2.84415 -4.93657
upperback 3.93553 3.336 -1.54966
thorax -1.03363 1.62104 0.841582
lowerneck -9.90871 6.59375 3.86976
upperneck 20.059 10.3446 -8.89097
head 8.54905 4.34104 -2.51608
rclavicle -2.90723e-014 2.78299e-015
rhumerus -36.1477 0.756141 -75.3766
rradius 54.3642
rwrist -4.50329
rhand -11.8773 35.9288
rfingers 7.12502
rthumb 14.1752 6.43243
lclavicle -2.90723e-014 2.78299e-015
lhumerus -27.2354 -7.83097 84.2868
lradius 43.9563
lwrist 14.19
lhand -31.5834 29.8393
lfingers 7.12502
lthumb -4.84647 59.7639
rfemur -14.2276 14.8691 0.766249
rtibia 36.6146
rfoot -9.00073 -7.49367
rtoes -20.0016
lfemur -14.2864 -15.3382 -2.31794
ltibia 31.3873
lfoot -5.47671 -9.08779
ltoes -27.4274
135
root -4.69702 17.4143 -5.0544 -6.76074 -11.6859 2.84635
lowerback 8.75256 2.86816 -4.93994
upperback 3.90002 3.37271 -1.48578
thorax -1.04378 1.64016 0.907351
lowerneck -9.781 6.27281 3.50631
upperneck 20.1248 9.87519 -8.46091
head 8.47098 4.13705 -2.37214
rclavicle 1.11319e-014 -7.95139e-015
rhumerus -36.2229 0.483506 -75.0792
rradius 53.5345
rwrist -4.4392
rhand -11.9901 36.5154
rfingers 7.12502
rthumb 14.0665 7.01147
lclavicle 1.11319e-014 -7.95139e-015
lhumerus -27.4754 -8.92884 84.5583
lradius 44.5553
lwrist 15.4492
lhand -32.7587 28.0166
lfingers 7.12502
lthumb -5.98126 57.9122
rfemur -13.7294 15.5315 1.22086
rtibia 36.6017
rfoot -10.2397 -5.71121
rtoes -23.4129
lfemur -14.5564 -15.7469 -1.42641
ltibia 31.3062
lfoot -5.28195 -8.50303
ltoes -29.6548
136
root -4.92793 17.4033 -5.08796 -6.61927 -10.7204 2.63061
lowerback 8.76033 2.82794 -4.88542
upperback 3.89421 3.32412 -1.50021
thorax -1.04784 1.61729 0.866692
lowerneck -9.57599 5.8817 3.44767
upperneck 20.0403 9.31907 -8.38992
head 8.35979 3.88713 -2.40844
rclavicle -5.84924e-014 2.74323e-014
rhumerus -36.298 0.11628 -74.857
rradius 52.8008
rwrist -4.25022
rhand -11.8908 36.372
rfingers 7.12502
rthumb 14.1622 6.8747
lclavicle -5.84924e-014 2.74323e-014
lhumerus -28.2379 -9.40156 84.5677
lradius 46.5317
lwrist 15.7329
lhand -33.2862 26.9536
lfingers 7.12502
lthumb -6.49048 56.8342
rfemur -13.3664 15.7427 1.75539
rtibia 36.7219
rfoot -11.8878 -4.49006
rtoes -25.9663
lfemur -15.0512 -16.4798 -0.58892
ltibia 31.3222
lfoot -4.80088 -7.60832
ltoes -30.2256
137
root -5.157 17.3837 -5.12182 -6.56015 -9.93595 1.97474
lowerback 8.98614 2.76365 -4.50272
upperback 4.01066 3.26363 -1.32057
thorax -1.03899 1.58835 0.838101
lowerneck -9.87234 5.67471 3.49478
upperneck 20.0845 9.05029 -8.5073
head 8.41912 3.7435 -2.47761
rclavicle -8.54774e-015 -7.95139e-016
rhumerus -36.0937 0.0743005 -74.7145
rradius 52.0516
rwrist -4.14786
rhand -12.051 35.8161
rfingers 7.12502
rthumb 14.0078 6.30809
lclavicle -8.54774e-015 -7.95139e-016
lhumerus -29.2773 -8.89579 84.5115
lradius 49.5139
lwrist 15.2656
lhand -32.923 25.4125
lfingers 7.12502
lthumb -6.13989 55.3036
rfemur -13.0664 15.6508 2.97774
rtibia 36.9196
rfoot -13.2017 -3.62405
rtoes -25.3285
lfemur -15.3211 -17.1737 0.66407
ltibia 31.4568
lfoot -4.34388 -6.67534
ltoes -29.7024
138
root -5.38019 17.3718 -5.15323 -6.4613 -9.33235 1.17762
lowerback 9.2455 2.70703 -4.01065
upperback 4.07934 3.22222 -1.05248
thorax -1.09878 1.57119 0.834851
lowerneck -10.1839 5.57186 3.54884
upperneck 20.2244 8.9507 -8.69762
head 8.52921 3.66971 -2.55389
rclavicle 6.70898e-015 5.56597e-015
rhumerus -35.8067 0.349224 -74.5668
rradius 51.1194
rwrist -4.00485
rhand -12.4831 35.7334
rfingers 7.12502
rthumb 13.5914 6.19703
lclavicle 6.70898e-015 5.56597e-015
lhumerus -29.6156 -8.69726 84.6279
lradius 50.844
lwrist 14.7752
lhand -32.2181 24.1028
lfingers 7.12502
lthumb -5.45929 54.0125
rfemur -12.8676 14.9578 4.55389
rtibia 37.1979
rfoot -13.9329 -3.33058
rtoes -24.3995
lfemur -15.6133 -17.8886 1.9917
ltibia 31.706
lfoot -4.06657 -5.56174
ltoes -31.0042
